<mxfile host="app.diagrams.net" agent="Mozilla/5.0 (Windows NT 10.0; Win64; x64) AppleWebKit/537.36 (KHTML, like Gecko) Chrome/140.0.0.0 Safari/537.36" version="28.2.5">
  <diagram name="FPTU Lab Events - System Architecture" id="system-arch">
    <mxGraphModel dx="1426" dy="743" grid="0" gridSize="10" guides="1" tooltips="1" connect="1" arrows="1" fold="1" page="1" pageScale="1" pageWidth="1169" pageHeight="827" math="0" shadow="0">
      <root>
        <mxCell id="0" />
        <mxCell id="1" parent="0" />
        <mxCell id="title" value="FPTU LAB EVENTS - SYSTEM ARCHITECTURE OVERVIEW" style="text;html=1;strokeColor=none;fillColor=none;align=center;verticalAlign=middle;whiteSpace=wrap;rounded=0;fontSize=24;fontStyle=1;fontColor=#0066CC;" parent="1" vertex="1">
          <mxGeometry x="180" y="20" width="800" height="40" as="geometry" />
        </mxCell>
        <mxCell id="client-layer-bg" value="" style="rounded=1;whiteSpace=wrap;html=1;fillColor=#dae8fc;strokeColor=#6c8ebf;opacity=30;" parent="1" vertex="1">
          <mxGeometry x="30" y="100" width="1140" height="180" as="geometry" />
        </mxCell>
        <mxCell id="client-layer-title" value="CLIENT LAYER" style="text;html=1;strokeColor=none;fillColor=none;align=left;verticalAlign=middle;whiteSpace=wrap;rounded=0;fontSize=16;fontStyle=1;fontColor=#0066CC;" parent="1" vertex="1">
          <mxGeometry x="100" y="100" width="150" height="30" as="geometry" />
        </mxCell>
        <mxCell id="web-admin" value="&lt;b&gt;Web Admin&lt;/b&gt;&lt;br&gt;(React.js)&lt;br&gt;&lt;br&gt;- Admin Dashboard&lt;br&gt;- Lab Management&lt;br&gt;- User Management&lt;br&gt;- Reports &amp; Analytics" style="rounded=1;whiteSpace=wrap;html=1;fillColor=#d5e8d4;strokeColor=#82b366;fontSize=11;align=left;verticalAlign=top;spacingLeft=10;spacingTop=5;" parent="1" vertex="1">
          <mxGeometry x="200" y="130" width="180" height="130" as="geometry" />
        </mxCell>
        <mxCell id="mobile-app" value="&lt;b&gt;Mobile App&lt;/b&gt;&lt;br&gt;(Flutter)&lt;br&gt;&lt;br&gt;- Book Lab&lt;br&gt;- Join Events&lt;br&gt;- QR Check-in&lt;br&gt;- Notifications&lt;br&gt;- Push Alerts" style="rounded=1;whiteSpace=wrap;html=1;fillColor=#d5e8d4;strokeColor=#82b366;fontSize=11;align=left;verticalAlign=top;spacingLeft=10;spacingTop=5;" parent="1" vertex="1">
          <mxGeometry x="440" y="107" width="180" height="130" as="geometry" />
        </mxCell>
        <mxCell id="web-student" value="&lt;b&gt;Web Portal&lt;/b&gt;&lt;br&gt;(React.js)&lt;br&gt;&lt;br&gt;- Browse Labs&lt;br&gt;- Book Lab&lt;br&gt;- Event Registration&lt;br&gt;- View History" style="rounded=1;whiteSpace=wrap;html=1;fillColor=#d5e8d4;strokeColor=#82b366;fontSize=11;align=left;verticalAlign=top;spacingLeft=10;spacingTop=5;" parent="1" vertex="1">
          <mxGeometry x="780" y="125" width="180" height="130" as="geometry" />
        </mxCell>
        <mxCell id="api-layer-bg" value="" style="rounded=1;whiteSpace=wrap;html=1;fillColor=#fff2cc;strokeColor=#d6b656;opacity=30;" parent="1" vertex="1">
          <mxGeometry x="30" y="320" width="1140" height="400" as="geometry" />
        </mxCell>
        <mxCell id="api-layer-title" value="API / BACKEND LAYER" style="text;html=1;strokeColor=none;fillColor=none;align=left;verticalAlign=middle;whiteSpace=wrap;rounded=0;fontSize=16;fontStyle=1;fontColor=#CC6600;" parent="1" vertex="1">
          <mxGeometry x="100" y="330" width="200" height="30" as="geometry" />
        </mxCell>
        <mxCell id="api-core" value="&lt;b&gt;ASP.NET Core Web API&lt;/b&gt;&lt;br&gt;(.NET 8.0 - Clean Architecture)&lt;br&gt;Deployed on MonsterASP.NET&lt;br&gt;&lt;br&gt;&lt;b&gt;Controller Layer&lt;/b&gt;&lt;br&gt;- AuthController&lt;br&gt;- LabsController&lt;br&gt;- BookingsController&lt;br&gt;- EventsController&lt;br&gt;&lt;br&gt;&lt;b&gt;Application Layer&lt;/b&gt;&lt;br&gt;- Services&lt;br&gt;- DTOs&lt;br&gt;- Mapping&lt;br&gt;&lt;br&gt;&lt;b&gt;Domain Layer&lt;/b&gt;&lt;br&gt;- Entities&lt;br&gt;- Business Rules&lt;br&gt;&lt;br&gt;&lt;b&gt;Infrastructure Layer&lt;/b&gt;&lt;br&gt;- Repository&lt;br&gt;- DbContext (Npgsql)" style="rounded=1;whiteSpace=wrap;html=1;fillColor=#ffe6cc;strokeColor=#d79b00;fontSize=10;align=center;verticalAlign=top;spacingLeft=10;spacingTop=5;" parent="1" vertex="1">
          <mxGeometry x="140" y="364" width="740" height="336" as="geometry" />
        </mxCell>
        <mxCell id="auth-box" value="&lt;b&gt;Authentication&lt;/b&gt;&lt;br&gt;- JWT Token&lt;br&gt;- Google OAuth 2.0&lt;br&gt;- Refresh Token" style="rounded=1;whiteSpace=wrap;html=1;fillColor=#f8cecc;strokeColor=#b85450;fontSize=10;align=left;verticalAlign=top;spacingLeft=5;spacingTop=5;" parent="1" vertex="1">
          <mxGeometry x="970" y="364" width="140" height="100" as="geometry" />
        </mxCell>
        <mxCell id="notification-box" value="&lt;b&gt;Notification&lt;/b&gt;&lt;br&gt;- Email (SMTP)&lt;br&gt;- In-App&lt;br&gt;- Push (Firebase)" style="rounded=1;whiteSpace=wrap;html=1;fillColor=#f8cecc;strokeColor=#b85450;fontSize=10;align=left;verticalAlign=top;spacingLeft=5;spacingTop=5;" parent="1" vertex="1">
          <mxGeometry x="970" y="520" width="140" height="100" as="geometry" />
        </mxCell>
        <mxCell id="data-layer-bg" value="" style="rounded=1;whiteSpace=wrap;html=1;fillColor=#e1d5e7;strokeColor=#9673a6;opacity=30;" parent="1" vertex="1">
          <mxGeometry x="30" y="730" width="1140" height="230" as="geometry" />
        </mxCell>
        <mxCell id="data-layer-title" value="DATA / STORAGE LAYER" style="text;html=1;strokeColor=none;fillColor=none;align=left;verticalAlign=middle;whiteSpace=wrap;rounded=0;fontSize=16;fontStyle=1;fontColor=#6600CC;" parent="1" vertex="1">
          <mxGeometry x="60" y="740" width="250" height="30" as="geometry" />
        </mxCell>
        <mxCell id="database" value="&lt;b&gt;PostgreSQL&lt;/b&gt;&lt;br&gt;(Supabase)&lt;br&gt;&lt;br&gt;- Users &amp; Roles&lt;br&gt;- Labs &amp; Equipment&lt;br&gt;- Bookings &amp; Approvals&lt;br&gt;- Events &amp; Registrations&lt;br&gt;- Attendance&lt;br&gt;- Audit Logs" style="shape=cylinder3;whiteSpace=wrap;html=1;boundedLbl=1;backgroundOutline=1;size=15;fillColor=#dae8fc;strokeColor=#6c8ebf;fontSize=11;align=center;verticalAlign=top;" parent="1" vertex="1">
          <mxGeometry x="140" y="790" width="200" height="160" as="geometry" />
        </mxCell>
        <mxCell id="storage" value="&lt;b&gt;Firebase Storage&lt;/b&gt;&lt;br&gt;/ Cloud Storage&lt;br&gt;&lt;br&gt;- User Avatars&lt;br&gt;- Event Cover Images&lt;br&gt;- Attachments&lt;br&gt;- QR Codes" style="shape=cylinder3;whiteSpace=wrap;html=1;boundedLbl=1;backgroundOutline=1;size=15;fillColor=#fff2cc;strokeColor=#d6b656;fontSize=11;align=center;verticalAlign=top;" parent="1" vertex="1">
          <mxGeometry x="420" y="790" width="200" height="140" as="geometry" />
        </mxCell>
        <mxCell id="cache" value="&lt;b&gt;Redis Cache&lt;/b&gt;&lt;br&gt;&lt;br&gt;- Session Data&lt;br&gt;- Frequently Accessed Data&lt;br&gt;- Rate Limiting&lt;br&gt;- Temporary Tokens" style="shape=cylinder3;whiteSpace=wrap;html=1;boundedLbl=1;backgroundOutline=1;size=15;fillColor=#f8cecc;strokeColor=#b85450;fontSize=11;align=center;verticalAlign=top;" parent="1" vertex="1">
          <mxGeometry x="690" y="790" width="200" height="140" as="geometry" />
        </mxCell>
        <mxCell id="conn1" value="" style="endArrow=classic;startArrow=classic;html=1;rounded=0;exitX=0.5;exitY=1;exitDx=0;exitDy=0;entryX=0.25;entryY=0;entryDx=0;entryDy=0;strokeWidth=2;strokeColor=#0066CC;" parent="1" source="web-admin" target="api-core" edge="1">
          <mxGeometry width="50" height="50" relative="1" as="geometry">
            <mxPoint x="500" y="400" as="sourcePoint" />
            <mxPoint x="550" y="350" as="targetPoint" />
          </mxGeometry>
        </mxCell>
        <mxCell id="conn1-label" value="HTTPS/REST API" style="text;html=1;strokeColor=none;fillColor=none;align=center;verticalAlign=middle;whiteSpace=wrap;rounded=0;fontSize=9;fontColor=#0066CC;" parent="1" vertex="1">
          <mxGeometry x="240" y="300" width="100" height="20" as="geometry" />
        </mxCell>
        <mxCell id="conn2" value="" style="endArrow=classic;startArrow=classic;html=1;rounded=0;exitX=0.5;exitY=1;exitDx=0;exitDy=0;entryX=0.5;entryY=0;entryDx=0;entryDy=0;strokeWidth=2;strokeColor=#0066CC;" parent="1" source="mobile-app" target="api-core" edge="1">
          <mxGeometry width="50" height="50" relative="1" as="geometry">
            <mxPoint x="500" y="400" as="sourcePoint" />
            <mxPoint x="550" y="350" as="targetPoint" />
          </mxGeometry>
        </mxCell>
        <mxCell id="conn2-label" value="HTTPS/REST API" style="text;html=1;strokeColor=none;fillColor=none;align=center;verticalAlign=middle;whiteSpace=wrap;rounded=0;fontSize=9;fontColor=#0066CC;" parent="1" vertex="1">
          <mxGeometry x="525" y="294" width="100" height="20" as="geometry" />
        </mxCell>
        <mxCell id="conn3" value="" style="endArrow=classic;startArrow=classic;html=1;rounded=0;exitX=0.5;exitY=1;exitDx=0;exitDy=0;entryX=0.75;entryY=0;entryDx=0;entryDy=0;strokeWidth=2;strokeColor=#0066CC;" parent="1" source="web-student" target="api-core" edge="1">
          <mxGeometry width="50" height="50" relative="1" as="geometry">
            <mxPoint x="500" y="400" as="sourcePoint" />
            <mxPoint x="550" y="350" as="targetPoint" />
          </mxGeometry>
        </mxCell>
        <mxCell id="conn3-label" value="HTTPS/REST API" style="text;html=1;strokeColor=none;fillColor=none;align=center;verticalAlign=middle;whiteSpace=wrap;rounded=0;fontSize=9;fontColor=#0066CC;" parent="1" vertex="1">
          <mxGeometry x="680" y="300" width="100" height="20" as="geometry" />
        </mxCell>
        <mxCell id="conn4" value="" style="endArrow=classic;startArrow=classic;html=1;rounded=0;exitX=1;exitY=0.25;exitDx=0;exitDy=0;entryX=0;entryY=0.5;entryDx=0;entryDy=0;strokeWidth=1;strokeColor=#CC0000;dashed=1;" parent="1" source="api-core" target="auth-box" edge="1">
          <mxGeometry width="50" height="50" relative="1" as="geometry">
            <mxPoint x="500" y="400" as="sourcePoint" />
            <mxPoint x="550" y="350" as="targetPoint" />
          </mxGeometry>
        </mxCell>
        <mxCell id="conn4-label" value="JWT Verify" style="text;html=1;strokeColor=none;fillColor=none;align=center;verticalAlign=middle;whiteSpace=wrap;rounded=0;fontSize=8;fontColor=#CC0000;rotation=-15;" parent="1" vertex="1">
          <mxGeometry x="890" y="406" width="50" height="15" as="geometry" />
        </mxCell>
        <mxCell id="conn5" value="" style="endArrow=classic;html=1;rounded=0;exitX=1;exitY=0.75;exitDx=0;exitDy=0;entryX=0;entryY=0.5;entryDx=0;entryDy=0;strokeWidth=1;strokeColor=#CC0000;dashed=1;" parent="1" source="api-core" target="notification-box" edge="1">
          <mxGeometry width="50" height="50" relative="1" as="geometry">
            <mxPoint x="500" y="500" as="sourcePoint" />
            <mxPoint x="550" y="450" as="targetPoint" />
          </mxGeometry>
        </mxCell>
        <mxCell id="conn5-label" value="Send Email/Push" style="text;html=1;strokeColor=none;fillColor=none;align=center;verticalAlign=middle;whiteSpace=wrap;rounded=0;fontSize=8;fontColor=#CC0000;" parent="1" vertex="1">
          <mxGeometry x="880" y="550" width="80" height="15" as="geometry" />
        </mxCell>
        <mxCell id="conn6" value="" style="endArrow=classic;startArrow=classic;html=1;rounded=0;exitX=0.25;exitY=1;exitDx=0;exitDy=0;entryX=0.5;entryY=0;entryDx=0;entryDy=0;entryPerimeter=0;strokeWidth=2;strokeColor=#6600CC;" parent="1" source="api-core" target="database" edge="1">
          <mxGeometry width="50" height="50" relative="1" as="geometry">
            <mxPoint x="500" y="600" as="sourcePoint" />
            <mxPoint x="550" y="550" as="targetPoint" />
          </mxGeometry>
        </mxCell>
        <mxCell id="conn6-label" value="EF Core + Npgsql&lt;br&gt;(Supabase Connection)" style="text;html=1;strokeColor=none;fillColor=none;align=center;verticalAlign=middle;whiteSpace=wrap;rounded=0;fontSize=9;fontColor=#6600CC;" parent="1" vertex="1">
          <mxGeometry x="279" y="730" width="120" height="30" as="geometry" />
        </mxCell>
        <mxCell id="conn7" value="" style="endArrow=classic;startArrow=classic;html=1;rounded=0;exitX=0.5;exitY=1;exitDx=0;exitDy=0;entryX=0.5;entryY=0;entryDx=0;entryDy=0;entryPerimeter=0;strokeWidth=2;strokeColor=#CC9900;" parent="1" source="api-core" target="storage" edge="1">
          <mxGeometry width="50" height="50" relative="1" as="geometry">
            <mxPoint x="500" y="600" as="sourcePoint" />
            <mxPoint x="550" y="550" as="targetPoint" />
          </mxGeometry>
        </mxCell>
        <mxCell id="conn7-label" value="Upload/Download&lt;br&gt;Files" style="text;html=1;strokeColor=none;fillColor=none;align=center;verticalAlign=middle;whiteSpace=wrap;rounded=0;fontSize=9;fontColor=#CC9900;" parent="1" vertex="1">
          <mxGeometry x="507" y="720" width="100" height="30" as="geometry" />
        </mxCell>
        <mxCell id="conn8" value="" style="endArrow=classic;startArrow=classic;html=1;rounded=0;exitX=0.75;exitY=1;exitDx=0;exitDy=0;entryX=0.5;entryY=0;entryDx=0;entryDy=0;entryPerimeter=0;strokeWidth=2;strokeColor=#CC0000;" parent="1" source="api-core" target="cache" edge="1">
          <mxGeometry width="50" height="50" relative="1" as="geometry">
            <mxPoint x="500" y="600" as="sourcePoint" />
            <mxPoint x="550" y="550" as="targetPoint" />
          </mxGeometry>
        </mxCell>
        <mxCell id="conn8-label" value="Cache Get/Set&lt;br&gt;(Session, Tokens)" style="text;html=1;strokeColor=none;fillColor=none;align=center;verticalAlign=middle;whiteSpace=wrap;rounded=0;fontSize=9;fontColor=#CC0000;" parent="1" vertex="1">
          <mxGeometry x="736" y="712" width="100" height="30" as="geometry" />
        </mxCell>
      </root>
    </mxGraphModel>
  </diagram>
</mxfile>
